<svg width="176" height="38" viewBox="0 0 176 38" fill="none" xmlns="http://www.w3.org/2000/svg">
<g clip-path="url(#clip0_261410_31)">
<path d="M28.4997 9.49996H25.333C25.333 6.00079 22.4988 3.16663 18.9997 3.16663C15.5005 3.16663 12.6663 6.00079 12.6663 9.49996H9.49967C7.75801 9.49996 6.33301 10.925 6.33301 12.6666V31.6666C6.33301 33.4083 7.75801 34.8333 9.49967 34.8333H28.4997C30.2413 34.8333 31.6663 33.4083 31.6663 31.6666V12.6666C31.6663 10.925 30.2413 9.49996 28.4997 9.49996ZM18.9997 6.33329C20.7413 6.33329 22.1663 7.75829 22.1663 9.49996H15.833C15.833 7.75829 17.258 6.33329 18.9997 6.33329ZM28.4997 31.6666H9.49967V12.6666H12.6663V15.8333C12.6663 16.7041 13.3788 17.4166 14.2497 17.4166C15.1205 17.4166 15.833 16.7041 15.833 15.8333V12.6666H22.1663V15.8333C22.1663 16.7041 22.8788 17.4166 23.7497 17.4166C24.6205 17.4166 25.333 16.7041 25.333 15.8333V12.6666H28.4997V31.6666Z" fill="#002F52"/>
</g>
<path d="M57.68 12.16V26H55.86V15.68L51.26 26H49.98L45.36 15.66V26H43.54V12.16H45.5L50.62 23.6L55.74 12.16H57.68ZM61.7066 13.26C61.3599 13.26 61.0666 13.14 60.8266 12.9C60.5866 12.66 60.4666 12.3667 60.4666 12.02C60.4666 11.6733 60.5866 11.38 60.8266 11.14C61.0666 10.9 61.3599 10.78 61.7066 10.78C62.0399 10.78 62.3199 10.9 62.5466 11.14C62.7866 11.38 62.9066 11.6733 62.9066 12.02C62.9066 12.3667 62.7866 12.66 62.5466 12.9C62.3199 13.14 62.0399 13.26 61.7066 13.26ZM62.5866 15.04V26H60.7666V15.04H62.5866ZM71.0284 14.84C72.3618 14.84 73.4418 15.2467 74.2684 16.06C75.0951 16.86 75.5084 18.02 75.5084 19.54V26H73.7084V19.8C73.7084 18.7067 73.4351 17.8733 72.8884 17.3C72.3418 16.7133 71.5951 16.42 70.6484 16.42C69.6884 16.42 68.9218 16.72 68.3484 17.32C67.7884 17.92 67.5084 18.7933 67.5084 19.94V26H65.6884V15.04H67.5084V16.6C67.8684 16.04 68.3551 15.6067 68.9684 15.3C69.5951 14.9933 70.2818 14.84 71.0284 14.84ZM83.9214 14.84C84.7481 14.84 85.4947 15.02 86.1614 15.38C86.8281 15.7267 87.3481 16.2533 87.7214 16.96C88.1081 17.6667 88.3014 18.5267 88.3014 19.54V26H86.5014V19.8C86.5014 18.7067 86.2281 17.8733 85.6814 17.3C85.1347 16.7133 84.3881 16.42 83.4414 16.42C82.4814 16.42 81.7147 16.72 81.1414 17.32C80.5814 17.92 80.3014 18.7933 80.3014 19.94V26H78.4814V11.2H80.3014V16.6C80.6614 16.04 81.1547 15.6067 81.7814 15.3C82.4214 14.9933 83.1347 14.84 83.9214 14.84ZM90.5944 20.48C90.5944 19.36 90.821 18.38 91.2744 17.54C91.7277 16.6867 92.3477 16.0267 93.1344 15.56C93.9344 15.0933 94.821 14.86 95.7944 14.86C96.7544 14.86 97.5877 15.0667 98.2944 15.48C99.001 15.8933 99.5277 16.4133 99.8744 17.04V15.04H101.714V26H99.8744V23.96C99.5144 24.6 98.9744 25.1333 98.2544 25.56C97.5477 25.9733 96.721 26.18 95.7744 26.18C94.801 26.18 93.921 25.94 93.1344 25.46C92.3477 24.98 91.7277 24.3067 91.2744 23.44C90.821 22.5733 90.5944 21.5867 90.5944 20.48ZM99.8744 20.5C99.8744 19.6733 99.7077 18.9533 99.3744 18.34C99.041 17.7267 98.5877 17.26 98.0144 16.94C97.4544 16.6067 96.8344 16.44 96.1544 16.44C95.4744 16.44 94.8544 16.6 94.2944 16.92C93.7344 17.24 93.2877 17.7067 92.9544 18.32C92.621 18.9333 92.4544 19.6533 92.4544 20.48C92.4544 21.32 92.621 22.0533 92.9544 22.68C93.2877 23.2933 93.7344 23.7667 94.2944 24.1C94.8544 24.42 95.4744 24.58 96.1544 24.58C96.8344 24.58 97.4544 24.42 98.0144 24.1C98.5877 23.7667 99.041 23.2933 99.3744 22.68C99.7077 22.0533 99.8744 21.3267 99.8744 20.5ZM114.002 26.18C113.162 26.18 112.409 26.04 111.742 25.76C111.075 25.4667 110.549 25.0667 110.162 24.56C109.775 24.04 109.562 23.4467 109.522 22.78H111.402C111.455 23.3267 111.709 23.7733 112.162 24.12C112.629 24.4667 113.235 24.64 113.982 24.64C114.675 24.64 115.222 24.4867 115.622 24.18C116.022 23.8733 116.222 23.4867 116.222 23.02C116.222 22.54 116.009 22.1867 115.582 21.96C115.155 21.72 114.495 21.4867 113.602 21.26C112.789 21.0467 112.122 20.8333 111.602 20.62C111.095 20.3933 110.655 20.0667 110.282 19.64C109.922 19.2 109.742 18.6267 109.742 17.92C109.742 17.36 109.909 16.8467 110.242 16.38C110.575 15.9133 111.049 15.5467 111.662 15.28C112.275 15 112.975 14.86 113.762 14.86C114.975 14.86 115.955 15.1667 116.702 15.78C117.449 16.3933 117.849 17.2333 117.902 18.3H116.082C116.042 17.7267 115.809 17.2667 115.382 16.92C114.969 16.5733 114.409 16.4 113.702 16.4C113.049 16.4 112.529 16.54 112.142 16.82C111.755 17.1 111.562 17.4667 111.562 17.92C111.562 18.28 111.675 18.58 111.902 18.82C112.142 19.0467 112.435 19.2333 112.782 19.38C113.142 19.5133 113.635 19.6667 114.262 19.84C115.049 20.0533 115.689 20.2667 116.182 20.48C116.675 20.68 117.095 20.9867 117.442 21.4C117.802 21.8133 117.989 22.3533 118.002 23.02C118.002 23.62 117.835 24.16 117.502 24.64C117.169 25.12 116.695 25.5 116.082 25.78C115.482 26.0467 114.789 26.18 114.002 26.18ZM119.891 20.48C119.891 19.36 120.118 18.38 120.571 17.54C121.025 16.6867 121.645 16.0267 122.431 15.56C123.231 15.0933 124.118 14.86 125.091 14.86C126.051 14.86 126.885 15.0667 127.591 15.48C128.298 15.8933 128.825 16.4133 129.171 17.04V15.04H131.011V26H129.171V23.96C128.811 24.6 128.271 25.1333 127.551 25.56C126.845 25.9733 126.018 26.18 125.071 26.18C124.098 26.18 123.218 25.94 122.431 25.46C121.645 24.98 121.025 24.3067 120.571 23.44C120.118 22.5733 119.891 21.5867 119.891 20.48ZM129.171 20.5C129.171 19.6733 129.005 18.9533 128.671 18.34C128.338 17.7267 127.885 17.26 127.311 16.94C126.751 16.6067 126.131 16.44 125.451 16.44C124.771 16.44 124.151 16.6 123.591 16.92C123.031 17.24 122.585 17.7067 122.251 18.32C121.918 18.9333 121.751 19.6533 121.751 20.48C121.751 21.32 121.918 22.0533 122.251 22.68C122.585 23.2933 123.031 23.7667 123.591 24.1C124.151 24.42 124.771 24.58 125.451 24.58C126.131 24.58 126.751 24.42 127.311 24.1C127.885 23.7667 128.338 23.2933 128.671 22.68C129.005 22.0533 129.171 21.3267 129.171 20.5ZM133.407 20.5C133.407 19.3667 133.634 18.38 134.087 17.54C134.54 16.6867 135.167 16.0267 135.967 15.56C136.78 15.0933 137.707 14.86 138.747 14.86C140.094 14.86 141.2 15.1867 142.067 15.84C142.947 16.4933 143.527 17.4 143.807 18.56H141.847C141.66 17.8933 141.294 17.3667 140.747 16.98C140.214 16.5933 139.547 16.4 138.747 16.4C137.707 16.4 136.867 16.76 136.227 17.48C135.587 18.1867 135.267 19.1933 135.267 20.5C135.267 21.82 135.587 22.84 136.227 23.56C136.867 24.28 137.707 24.64 138.747 24.64C139.547 24.64 140.214 24.4533 140.747 24.08C141.28 23.7067 141.647 23.1733 141.847 22.48H143.807C143.514 23.6 142.927 24.5 142.047 25.18C141.167 25.8467 140.067 26.18 138.747 26.18C137.707 26.18 136.78 25.9467 135.967 25.48C135.167 25.0133 134.54 24.3533 134.087 23.5C133.634 22.6467 133.407 21.6467 133.407 20.5ZM151.015 26.18C149.989 26.18 149.055 25.9467 148.215 25.48C147.389 25.0133 146.735 24.3533 146.255 23.5C145.789 22.6333 145.555 21.6333 145.555 20.5C145.555 19.38 145.795 18.3933 146.275 17.54C146.769 16.6733 147.435 16.0133 148.275 15.56C149.115 15.0933 150.055 14.86 151.095 14.86C152.135 14.86 153.075 15.0933 153.915 15.56C154.755 16.0133 155.415 16.6667 155.895 17.52C156.389 18.3733 156.635 19.3667 156.635 20.5C156.635 21.6333 156.382 22.6333 155.875 23.5C155.382 24.3533 154.709 25.0133 153.855 25.48C153.002 25.9467 152.055 26.18 151.015 26.18ZM151.015 24.58C151.669 24.58 152.282 24.4267 152.855 24.12C153.429 23.8133 153.889 23.3533 154.235 22.74C154.595 22.1267 154.775 21.38 154.775 20.5C154.775 19.62 154.602 18.8733 154.255 18.26C153.909 17.6467 153.455 17.1933 152.895 16.9C152.335 16.5933 151.729 16.44 151.075 16.44C150.409 16.44 149.795 16.5933 149.235 16.9C148.689 17.1933 148.249 17.6467 147.915 18.26C147.582 18.8733 147.415 19.62 147.415 20.5C147.415 21.3933 147.575 22.1467 147.895 22.76C148.229 23.3733 148.669 23.8333 149.215 24.14C149.762 24.4333 150.362 24.58 151.015 24.58ZM160.848 11.2V26H159.028V11.2H160.848ZM163.27 20.48C163.27 19.36 163.497 18.38 163.95 17.54C164.403 16.6867 165.023 16.0267 165.81 15.56C166.61 15.0933 167.497 14.86 168.47 14.86C169.43 14.86 170.263 15.0667 170.97 15.48C171.677 15.8933 172.203 16.4133 172.55 17.04V15.04H174.39V26H172.55V23.96C172.19 24.6 171.65 25.1333 170.93 25.56C170.223 25.9733 169.397 26.18 168.45 26.18C167.477 26.18 166.597 25.94 165.81 25.46C165.023 24.98 164.403 24.3067 163.95 23.44C163.497 22.5733 163.27 21.5867 163.27 20.48ZM172.55 20.5C172.55 19.6733 172.383 18.9533 172.05 18.34C171.717 17.7267 171.263 17.26 170.69 16.94C170.13 16.6067 169.51 16.44 168.83 16.44C168.15 16.44 167.53 16.6 166.97 16.92C166.41 17.24 165.963 17.7067 165.63 18.32C165.297 18.9333 165.13 19.6533 165.13 20.48C165.13 21.32 165.297 22.0533 165.63 22.68C165.963 23.2933 166.41 23.7667 166.97 24.1C167.53 24.42 168.15 24.58 168.83 24.58C169.51 24.58 170.13 24.42 170.69 24.1C171.263 23.7667 171.717 23.2933 172.05 22.68C172.383 22.0533 172.55 21.3267 172.55 20.5Z" fill="black"/>
<defs>
<clipPath id="clip0_261410_31">
<rect width="38" height="38" fill="white"/>
</clipPath>
</defs>
</svg>
