<svg width="138" height="32" viewBox="0 0 138 32" fill="none" xmlns="http://www.w3.org/2000/svg">
<path d="M55.68 9.16V23H53.86V12.68L49.26 23H47.98L43.36 12.66V23H41.54V9.16H43.5L48.62 20.6L53.74 9.16H55.68ZM68.7666 17.1C68.7666 17.4467 68.7466 17.8133 68.7066 18.2H59.9466C60.0132 19.28 60.3799 20.1267 61.0466 20.74C61.7266 21.34 62.5466 21.64 63.5066 21.64C64.2932 21.64 64.9466 21.46 65.4666 21.1C65.9999 20.7267 66.3732 20.2333 66.5866 19.62H68.5466C68.2532 20.6733 67.6666 21.5333 66.7866 22.2C65.9066 22.8533 64.8132 23.18 63.5066 23.18C62.4666 23.18 61.5332 22.9467 60.7066 22.48C59.8932 22.0133 59.2532 21.3533 58.7866 20.5C58.3199 19.6333 58.0866 18.6333 58.0866 17.5C58.0866 16.3667 58.3132 15.3733 58.7666 14.52C59.2199 13.6667 59.8532 13.0133 60.6666 12.56C61.4932 12.0933 62.4399 11.86 63.5066 11.86C64.5466 11.86 65.4666 12.0867 66.2666 12.54C67.0666 12.9933 67.6799 13.62 68.1066 14.42C68.5466 15.2067 68.7666 16.1 68.7666 17.1ZM66.8866 16.72C66.8866 16.0267 66.7332 15.4333 66.4266 14.94C66.1199 14.4333 65.6999 14.0533 65.1666 13.8C64.6466 13.5333 64.0666 13.4 63.4266 13.4C62.5066 13.4 61.7199 13.6933 61.0666 14.28C60.4266 14.8667 60.0599 15.68 59.9666 16.72H66.8866ZM80.8889 12.04V23H79.0689V21.38C78.7222 21.94 78.2356 22.38 77.6089 22.7C76.9956 23.0067 76.3156 23.16 75.5689 23.16C74.7156 23.16 73.9489 22.9867 73.2689 22.64C72.5889 22.28 72.0489 21.7467 71.6489 21.04C71.2622 20.3333 71.0689 19.4733 71.0689 18.46V12.04H72.8689V18.22C72.8689 19.3 73.1422 20.1333 73.6889 20.72C74.2356 21.2933 74.9822 21.58 75.9289 21.58C76.9022 21.58 77.6689 21.28 78.2289 20.68C78.7889 20.08 79.0689 19.2067 79.0689 18.06V12.04H80.8889ZM91.1139 14.06C91.4739 13.4333 92.0072 12.9133 92.7139 12.5C93.4339 12.0733 94.2672 11.86 95.2139 11.86C96.1872 11.86 97.0672 12.0933 97.8539 12.56C98.6539 13.0267 99.2806 13.6867 99.7339 14.54C100.187 15.38 100.414 16.36 100.414 17.48C100.414 18.5867 100.187 19.5733 99.7339 20.44C99.2806 21.3067 98.6539 21.98 97.8539 22.46C97.0672 22.94 96.1872 23.18 95.2139 23.18C94.2806 23.18 93.4539 22.9733 92.7339 22.56C92.0272 22.1333 91.4872 21.6067 91.1139 20.98V28.2H89.2939V12.04H91.1139V14.06ZM98.5539 17.48C98.5539 16.6533 98.3872 15.9333 98.0539 15.32C97.7206 14.7067 97.2672 14.24 96.6939 13.92C96.1339 13.6 95.5139 13.44 94.8339 13.44C94.1672 13.44 93.5472 13.6067 92.9739 13.94C92.4139 14.26 91.9606 14.7333 91.6139 15.36C91.2806 15.9733 91.1139 16.6867 91.1139 17.5C91.1139 18.3267 91.2806 19.0533 91.6139 19.68C91.9606 20.2933 92.4139 20.7667 92.9739 21.1C93.5472 21.42 94.1672 21.58 94.8339 21.58C95.5139 21.58 96.1339 21.42 96.6939 21.1C97.2672 20.7667 97.7206 20.2933 98.0539 19.68C98.3872 19.0533 98.5539 18.32 98.5539 17.48ZM112.81 17.1C112.81 17.4467 112.79 17.8133 112.75 18.2H103.99C104.056 19.28 104.423 20.1267 105.09 20.74C105.77 21.34 106.59 21.64 107.55 21.64C108.336 21.64 108.99 21.46 109.51 21.1C110.043 20.7267 110.416 20.2333 110.63 19.62H112.59C112.296 20.6733 111.71 21.5333 110.83 22.2C109.95 22.8533 108.856 23.18 107.55 23.18C106.51 23.18 105.576 22.9467 104.75 22.48C103.936 22.0133 103.296 21.3533 102.83 20.5C102.363 19.6333 102.13 18.6333 102.13 17.5C102.13 16.3667 102.356 15.3733 102.81 14.52C103.263 13.6667 103.896 13.0133 104.71 12.56C105.536 12.0933 106.483 11.86 107.55 11.86C108.59 11.86 109.51 12.0867 110.31 12.54C111.11 12.9933 111.723 13.62 112.15 14.42C112.59 15.2067 112.81 16.1 112.81 17.1ZM110.93 16.72C110.93 16.0267 110.776 15.4333 110.47 14.94C110.163 14.4333 109.743 14.0533 109.21 13.8C108.69 13.5333 108.11 13.4 107.47 13.4C106.55 13.4 105.763 13.6933 105.11 14.28C104.47 14.8667 104.103 15.68 104.01 16.72H110.93ZM117.032 13.82C117.352 13.1933 117.805 12.7067 118.392 12.36C118.992 12.0133 119.719 11.84 120.572 11.84V13.72H120.092C118.052 13.72 117.032 14.8267 117.032 17.04V23H115.212V12.04H117.032V13.82ZM127.133 13.54H124.833V23H123.013V13.54H121.593V12.04H123.013V11.26C123.013 10.0333 123.326 9.14 123.953 8.58C124.593 8.00667 125.613 7.72 127.013 7.72V9.24C126.213 9.24 125.646 9.4 125.313 9.72C124.993 10.0267 124.833 10.54 124.833 11.26V12.04H127.133V13.54ZM130.195 10.26C129.848 10.26 129.555 10.14 129.315 9.9C129.075 9.66 128.955 9.36667 128.955 9.02C128.955 8.67333 129.075 8.38 129.315 8.14C129.555 7.9 129.848 7.78 130.195 7.78C130.528 7.78 130.808 7.9 131.035 8.14C131.275 8.38 131.395 8.67333 131.395 9.02C131.395 9.36667 131.275 9.66 131.035 9.9C130.808 10.14 130.528 10.26 130.195 10.26ZM131.075 12.04V23H129.255V12.04H131.075ZM135.997 8.2V23H134.177V8.2H135.997Z" fill="black"/>
<path d="M16 0C7.168 0 0 7.168 0 16C0 24.832 7.168 32 16 32C24.832 32 32 24.832 32 16C32 7.168 24.832 0 16 0ZM8.112 26.048C8.8 24.608 12.992 23.2 16 23.2C19.008 23.2 23.216 24.608 23.888 26.048C21.712 27.776 18.976 28.8 16 28.8C13.024 28.8 10.288 27.776 8.112 26.048ZM26.176 23.728C23.888 20.944 18.336 20 16 20C13.664 20 8.112 20.944 5.824 23.728C4.192 21.584 3.2 18.912 3.2 16C3.2 8.944 8.944 3.2 16 3.2C23.056 3.2 28.8 8.944 28.8 16C28.8 18.912 27.808 21.584 26.176 23.728ZM16 6.4C12.896 6.4 10.4 8.896 10.4 12C10.4 15.104 12.896 17.6 16 17.6C19.104 17.6 21.6 15.104 21.6 12C21.6 8.896 19.104 6.4 16 6.4ZM16 14.4C14.672 14.4 13.6 13.328 13.6 12C13.6 10.672 14.672 9.6 16 9.6C17.328 9.6 18.4 10.672 18.4 12C18.4 13.328 17.328 14.4 16 14.4Z" fill="#002F52"/>
</svg>
